<svg width="27" height="27" fill="none" xmlns="http://www.w3.org/2000/svg"><circle cx="13.5" cy="13.5" r="12.5" fill="#fff" stroke="#CACDD8" stroke-width="2"/><path d="M8.163 19.904h.075l3.461-.316a1.66 1.66 0 001.005-.473l7.471-7.471a1.594 1.594 0 00-.058-2.25L17.843 7.12a1.66 1.66 0 00-2.209-.059l-7.471 7.472a1.66 1.66 0 00-.473 1.004L7.333 19a.83.83 0 00.83.905zm8.526-11.622l2.266 2.266-1.66 1.619-2.225-2.225 1.619-1.66zM9.3 15.678l4.674-4.64 2.241 2.241-4.648 4.65-2.49.232.223-2.483z" fill="#A2A6B0"/></svg>