<svg width="19" height="18" fill="none" xmlns="http://www.w3.org/2000/svg"><path d="M11.457 17.333a2.083 2.083 0 100-4.166 2.083 2.083 0 000 4.166zm-7.291 0a2.083 2.083 0 100-4.166 2.083 2.083 0 000 4.166zM17.747 2.67a1.002 1.002 0 000-2.003h-1.199c-.94 0-1.752.652-1.956 1.568l-1.305 5.878A2.004 2.004 0 0111.33 9.68H3.505L2.003 3.67h9.735a1.002 1.002 0 000-2.002H2.003A2.003 2.003 0 00.06 4.159l1.502 6.008a2.003 2.003 0 001.943 1.517h7.825a4.006 4.006 0 003.912-3.137l1.306-5.877h1.199z" fill="#0156FF"/></svg>