<svg width="29" height="10" fill="none" xmlns="http://www.w3.org/2000/svg"><path d="M26.7.904h-1.745c-.527 0-.933.16-1.177.682L20.45 9.09h2.354s.406-1.003.487-1.244h2.882c.081.281.284 1.204.284 1.204h2.11L26.702.904zm-2.76 5.257c.204-.482.894-2.287.894-2.287 0 .04.203-.482.284-.763l.162.722s.447 1.967.528 2.368H23.94v-.04zm-3.327.243c0 1.685-1.543 2.808-3.937 2.808-1.015 0-1.99-.2-2.517-.441l.325-1.846.284.12c.73.322 1.218.442 2.11.442.65 0 1.34-.24 1.34-.803 0-.36-.284-.601-1.177-1.003-.852-.401-1.989-1.043-1.989-2.207 0-1.605 1.583-2.688 3.815-2.688.853 0 1.583.16 2.03.361l-.325 1.766-.162-.16a4.404 4.404 0 00-1.705-.322c-.852.04-1.258.401-1.258.722 0 .361.487.642 1.258 1.003 1.299.602 1.908 1.285 1.908 2.248z" fill="#3362AB"/><path d="M.806.986l.04-.16h3.49c.488 0 .853.16.975.682l.771 3.61C5.311 3.194 3.525 1.629.806.987z" fill="#F9B50B"/><path d="M10.993.906L7.463 9.05H5.066L3.038 2.23C4.5 3.153 5.717 4.597 6.163 5.6l.244.843L8.599.866h2.394v.04zm.933-.04h2.233l-1.42 8.185h-2.233l1.42-8.185z" fill="#3362AB"/></svg>