<svg width="29" height="6" fill="none" xmlns="http://www.w3.org/2000/svg"><path d="M17.943 2.985a2.24 2.24 0 00-.687-1.625 2.4 2.4 0 00-1.685-.664h-.01c-1.327 0-2.38 1.018-2.38 2.302 0 1.271 1.066 2.301 2.38 2.301 1.33 0 2.382-1.018 2.382-2.301v-.013z" fill="#F26E21"/><path d="M12.74 3.972c-.357.345-.685.48-1.04.486-.861-.007-1.495-.624-1.495-1.504 0-.443.174-.806.448-1.116.258-.236.59-.39.972-.39.412 0 .733.134 1.099.488V.918a2.365 2.365 0 00-1.1-.266 2.701 2.701 0 00-1.551.625 2.246 2.246 0 00-.336.355 2.185 2.185 0 00-.494 1.366c0 1.284 1.054 2.258 2.382 2.258h.046c.366 0 .687-.088 1.099-.266l-.03-1.018c-.016.015.014.029 0 .043v-.043zm8.21-2.686l-1.037 2.465L18.723.83h-.962l1.877 4.47h.504l1.97-4.47h-.962l-.2.456zm1.527 1.491v2.39h2.519V4.46h-1.603V3.264h1.558v-.752h-1.558v-.93h1.603V.829h-2.518v1.948zM1.779.83H.496v4.34H1.78c.686 0 1.19-.177 1.602-.487A2.162 2.162 0 004.205 3c0-1.284-.961-2.17-2.426-2.17zm1.053 3.276c-.275.222-.641.354-1.191.354h-.275V1.583h.23c.549 0 .915.088 1.19.354.32.265.504.664.504 1.063.046.398-.138.84-.458 1.106zM5.488.83h-.87v4.337h.87V.83zm2.198 1.682C7.137 2.335 7 2.202 7 1.981c0-.266.275-.487.642-.487.274 0 .503.089.732.354l.458-.575A2.034 2.034 0 007.503.786c-.778 0-1.42.531-1.42 1.24 0 .62.276.885 1.1 1.195.366.132.503.177.595.265a.485.485 0 01.275.443c0 .354-.275.62-.687.62-.413 0-.779-.222-.962-.576l-.55.531c.413.576.917.841 1.558.841.916 0 1.556-.575 1.556-1.416 0-.753-.274-1.063-1.282-1.417zm19.784.841c.686-.133 1.053-.576 1.053-1.24 0-.796-.596-1.284-1.603-1.284h-1.328v4.339h.87V3.44h.137l1.237 1.727h1.053l-1.42-1.815zm-.733-.532h-.275V1.493h.274c.55 0 .87.222.87.665 0 .442-.32.663-.87.663z" fill="#2B2B2B"/></svg>