<svg width="28" height="28" fill="none" xmlns="http://www.w3.org/2000/svg"><path d="M15.877 23.214a2.268 2.268 0 100-4.537 2.268 2.268 0 000 4.537zm-7.938 0a2.268 2.268 0 100-4.536 2.268 2.268 0 000 4.536zM22.725 7.249a1.09 1.09 0 000-2.18h-1.306c-1.023 0-1.907.71-2.13 1.708l-1.42 6.398a2.182 2.182 0 01-2.13 1.708h-8.52L5.585 8.339h10.598a1.09 1.09 0 000-2.18H5.584A2.18 2.18 0 003.468 8.87l1.635 6.541a2.18 2.18 0 002.117 1.653h8.519a4.362 4.362 0 004.258-3.416l1.422-6.399h1.306z" fill="#fff"/></svg>