<svg width="20" height="21" fill="none" xmlns="http://www.w3.org/2000/svg"><circle cx="10" cy="10.933" r="9.25" fill="#fff" stroke="#CACDD8" stroke-width="1.5"/><path d="M6.047 15.676h.056l2.564-.233a1.23 1.23 0 00.744-.351l5.534-5.534a1.18 1.18 0 00-.043-1.667l-1.685-1.685a1.23 1.23 0 00-1.636-.043l-5.534 5.535a1.23 1.23 0 00-.35.744l-.265 2.564a.615.615 0 00.615.67zm6.316-8.609l1.678 1.679-1.23 1.2-1.648-1.649 1.2-1.23zm-5.473 5.48l3.462-3.438 1.66 1.66-3.444 3.444-1.844.172.166-1.839z" fill="#A2A6B0"/></svg>