<svg width="50" height="50" fill="none" xmlns="http://www.w3.org/2000/svg"><path d="M0 25C0 11.193 11.193 0 25 0s25 11.193 25 25-11.193 25-25 25H0V25z" fill="#0156FF"/><path d="M23.892 17.09c.35-.798 1.482-.798 1.831 0l1.956 4.463a1 1 0 00.817.593l4.848.481c.867.086 1.217 1.163.566 1.742l-3.64 3.239a1 1 0 00-.312.96l1.041 4.76c.186.85-.73 1.516-1.482 1.076l-4.204-2.46a1 1 0 00-1.01 0l-4.205 2.46c-.752.44-1.668-.225-1.482-1.077l1.04-4.759a1 1 0 00-.311-.96l-3.64-3.239c-.651-.58-.301-1.656.566-1.742l4.848-.48a1 1 0 00.817-.594l1.956-4.463z" fill="#fff"/></svg>