<svg width="35" height="35" fill="none" xmlns="http://www.w3.org/2000/svg"><path d="M17.5 28.85c-6.257 0-11.35-5.093-11.35-11.35S11.243 6.15 17.5 6.15s11.35 5.093 11.35 11.35-5.093 11.35-11.35 11.35z" stroke="#000" stroke-width="2.3"/><path d="M18.667 20.107l.861-.861a.842.842 0 01.9-.185l1.05.42a.837.837 0 01.522.768v1.923a.835.835 0 01-.877.827c-7.353-.458-8.837-6.688-9.118-9.072A.836.836 0 0112.84 13h1.857a.83.83 0 01.769.523l.419 1.05a.831.831 0 01-.18.9l-.862.861s.496 3.358 3.825 3.773z" fill="#000"/></svg>