<svg width="28" height="18" fill="none" xmlns="http://www.w3.org/2000/svg"><path d="M17.645 15.476h-7.287V2.529h7.287v12.947z" fill="#6C6BBD"/><path d="M10.825 9a8.188 8.188 0 013.18-6.473A8.353 8.353 0 008.86.767C4.259.766.53 4.451.53 9c0 4.547 3.728 8.234 8.328 8.234 1.943 0 3.73-.658 5.146-1.76A8.188 8.188 0 0110.824 9z" fill="#EB001B"/><path d="M27.472 9c0 4.547-3.728 8.234-8.328 8.234a8.355 8.355 0 01-5.147-1.76c1.938-1.508 3.181-3.848 3.181-6.474a8.188 8.188 0 00-3.18-6.473 8.355 8.355 0 015.146-1.76c4.6 0 8.328 3.685 8.328 8.233z" fill="#0099DF"/></svg>